<?xml version="1.0" encoding="UTF-8"?> <svg xmlns="http://www.w3.org/2000/svg" id="Layer_1" data-name="Layer 1" viewBox="0 0 288.76 163.6"><defs><style>.cls-1{fill:#006528;}.cls-2{fill:none;stroke:#006528;stroke-width:3px;}.cls-3{fill:#e1001a;}.cls-4{fill:#fff;}</style></defs><title>icatom</title><path class="cls-1" d="M18.16,148H7.86V93h10.3Z" transform="translate(-7.86 -6.95)"></path><path class="cls-1" d="M115.75,93.77h-9.61L84,147.65H95.29L99.46,136H122l4.59,11.28h10.44Zm-13.36,32.16,8.35-16.71,7.94,16.71Z" transform="translate(-7.86 -6.95)"></path><polygon class="cls-1" points="130.44 86.4 159.68 86.4 159.68 95.59 150.08 95.59 150.08 140.71 140.05 140.71 140.05 95.59 130.44 95.59 130.44 86.4"></polygon><path class="cls-1" d="M200.75,91.25c-15.57,0-28.19,12.91-28.19,28.84s12.62,28.81,28.19,28.81S229,136,229,120.09,216.33,91.25,200.75,91.25Zm0,47.63a18.59,18.59,0,1,1,18.18-18.59A18.39,18.39,0,0,1,200.75,138.88Z" transform="translate(-7.86 -6.95)"></path><polygon class="cls-1" points="234.45 86.82 245.32 86.82 257.43 123.16 269.13 86.4 279.99 86.4 288.76 140.29 278.73 140.29 273.72 108.13 262.44 140.29 252 140.29 241.98 108.53 236.55 140.29 225.68 140.29 234.45 86.82"></polygon><path class="cls-1" d="M56.53,148.89c13.81-.5,18.79-6.79,22.6-10.29l-6.95-6.84s-5.61,8-17.66,7.09c0,0-16.32-1-16.81-18.33,0,0,.2-11,8.78-16.31,0,0,12.4-8,25.69,4.75l6.95-6.76S69.71,91.61,56.42,92c-16,.51-28.76,12.35-28.76,28.19a28.77,28.77,0,0,0,28.87,28.68" transform="translate(-7.86 -6.95)"></path><line class="cls-2" x1="1.96" y1="65.06" x2="113.32" y2="65.06"></line><line class="cls-2" x1="176.53" y1="65.08" x2="277.59" y2="65.08"></line><path class="cls-3" d="M133.49,40.25C143.31,24,160.57,16.4,172,23.33s12.81,25.73,3,42-27.1,23.84-38.56,16.92S123.66,56.51,133.49,40.25Z" transform="translate(-7.86 -6.95)"></path><path class="cls-1" d="M132.24,23.82S144.15,27.63,150.77,7l2.65.82s-6.13,21.84-21.35,18.86Z" transform="translate(-7.86 -6.95)"></path><rect class="cls-1" y="151.07" width="288.73" height="12.53"></rect><path class="cls-4" d="M37.32,162.43a2,2,0,0,1-1,1.82,5.49,5.49,0,0,1-2.8.61h-.39c0,.78,0,1.72.1,2.82H32q.09-1.51.09-3.66c0-1.23,0-2.34-.09-3.32h1.66l1.11,0a3.21,3.21,0,0,1,1.84.47A1.48,1.48,0,0,1,37.32,162.43Zm-1,.31c0-.92-.71-1.38-2.12-1.38a10.29,10.29,0,0,0-1.16.08c0,.58,0,1.49,0,2.72h.52C35.4,164.17,36.31,163.69,36.31,162.74Z" transform="translate(-7.86 -6.95)"></path><path class="cls-4" d="M51,167.67H49.8a19.17,19.17,0,0,0-.84-2,1.69,1.69,0,0,0-.77-.81,3.29,3.29,0,0,0-1.21-.15h-.91c0,1.16,0,2.15.07,3H45c.06-1.1.09-2.33.09-3.66s0-2.37-.09-3.32h1.54l.95,0q2.64,0,2.64,1.62a1.93,1.93,0,0,1-1.48,1.89v.06a1.76,1.76,0,0,1,1.07.82A22.15,22.15,0,0,1,51,167.67Zm-1.85-5c0-.86-.64-1.28-1.94-1.28a7.58,7.58,0,0,0-1.16.07c0,.62,0,1.47,0,2.53l.69,0C48.33,164,49.12,163.54,49.12,162.65Z" transform="translate(-7.86 -6.95)"></path><path class="cls-4" d="M65.51,164.08a3.55,3.55,0,0,1-1.14,2.76,3.76,3.76,0,0,1-2.63,1,3.71,3.71,0,0,1-2.52-.95,3.24,3.24,0,0,1-1.08-2.57,3.56,3.56,0,0,1,1.14-2.78,3.84,3.84,0,0,1,2.63-1,3.67,3.67,0,0,1,2.52,1A3.24,3.24,0,0,1,65.51,164.08Zm-1.07.12a2.75,2.75,0,0,0-.82-2.14,2.65,2.65,0,0,0-1.88-.76,2.39,2.39,0,0,0-1.76.8,2.91,2.91,0,0,0-.78,2.13,2.78,2.78,0,0,0,.83,2.15,2.72,2.72,0,0,0,1.88.76,2.36,2.36,0,0,0,1.76-.81A3,3,0,0,0,64.44,164.2Z" transform="translate(-7.86 -6.95)"></path><path class="cls-4" d="M79.62,163.93a3.73,3.73,0,0,1-1.09,2.67,4,4,0,0,1-3,1.15c-.42,0-1.12,0-2.09-.08.06-1.1.09-2.33.09-3.66s0-2.37-.09-3.32h1.4l.65,0a4.53,4.53,0,0,1,3.14.93A3.06,3.06,0,0,1,79.62,163.93Zm-1.05.24a2.62,2.62,0,0,0-.85-2,3.77,3.77,0,0,0-2.64-.79,5,5,0,0,0-.69.05c0,.83,0,1.69,0,2.57s0,1.94.06,2.93a5,5,0,0,0,.93.09,3.08,3.08,0,0,0,2.37-.84A2.85,2.85,0,0,0,78.57,164.17Z" transform="translate(-7.86 -6.95)"></path><path class="cls-4" d="M93.82,160.69c0,.68,0,1.31,0,1.9s0,1.13,0,1.64c0,2.39-1.07,3.59-3.19,3.59a4.27,4.27,0,0,1-1.43-.21,2.41,2.41,0,0,1-1-.65,2.79,2.79,0,0,1-.56-1.1,6.11,6.11,0,0,1-.18-1.57c0-.53,0-1.1,0-1.69s0-1.23,0-1.91h1.14c-.05,1.37-.07,2.43-.07,3.2a8.93,8.93,0,0,0,.1,1.52,2.48,2.48,0,0,0,.37,1,1.43,1.43,0,0,0,.66.56,2.64,2.64,0,0,0,1,.16,2.83,2.83,0,0,0,1-.16,1.44,1.44,0,0,0,.66-.54,2.57,2.57,0,0,0,.36-1,9.09,9.09,0,0,0,.11-1.55c0-.38,0-.83,0-1.36s0-1.13-.06-1.83Z" transform="translate(-7.86 -6.95)"></path><path class="cls-4" d="M107.45,166.82l-.08.8a6.28,6.28,0,0,1-1.61.2,4.32,4.32,0,0,1-3.12-1,3.3,3.3,0,0,1-1-2.47,3.51,3.51,0,0,1,1.16-2.64,4.39,4.39,0,0,1,3.13-1.1,5.38,5.38,0,0,1,1.15.14l-.17.85a5.13,5.13,0,0,0-1.24-.19,2.87,2.87,0,0,0-2.21.81,2.85,2.85,0,0,0,.11,4,3.27,3.27,0,0,0,2.4.85A6.84,6.84,0,0,0,107.45,166.82Z" transform="translate(-7.86 -6.95)"></path><path class="cls-4" d="M120.11,160.69l0,.76c-.79,0-1.61,0-2.46,0,0,.68,0,1.55,0,2.61s0,2.38.06,3.66h-1.11c0-1.22.08-2.44.08-3.66,0-1,0-1.91,0-2.61-.6,0-1.43,0-2.51.06l0-.77Z" transform="translate(-7.86 -6.95)"></path><path class="cls-4" d="M134.39,164.08a3.55,3.55,0,0,1-1.14,2.76,3.83,3.83,0,0,1-5.15.09,3.24,3.24,0,0,1-1.08-2.57,3.56,3.56,0,0,1,1.14-2.78,3.84,3.84,0,0,1,2.63-1,3.67,3.67,0,0,1,2.52,1A3.24,3.24,0,0,1,134.39,164.08Zm-1.07.12a2.75,2.75,0,0,0-.82-2.14,2.65,2.65,0,0,0-1.88-.76,2.39,2.39,0,0,0-1.76.8,2.9,2.9,0,0,0-.77,2.13,2.77,2.77,0,0,0,.82,2.15,2.73,2.73,0,0,0,1.88.76,2.36,2.36,0,0,0,1.76-.81A3,3,0,0,0,133.32,164.2Z" transform="translate(-7.86 -6.95)"></path><path class="cls-4" d="M146.88,165.87c0,1.32-1,2-3.1,2a8.19,8.19,0,0,1-2-.23l.21-.84a6.52,6.52,0,0,0,1.93.31c1.36,0,2-.34,2-1a1.08,1.08,0,0,0-.53-.89,8.24,8.24,0,0,0-1.4-.66,5.85,5.85,0,0,1-1.54-.8,1.56,1.56,0,0,1-.61-1.26,1.58,1.58,0,0,1,.62-1.29,3,3,0,0,1,2-.56,7.85,7.85,0,0,1,2,.16l-.15.86a6.86,6.86,0,0,0-2-.26c-1,0-1.54.31-1.54.92a.87.87,0,0,0,.44.75,8.78,8.78,0,0,0,1.28.56,6.86,6.86,0,0,1,1.63.83A1.77,1.77,0,0,1,146.88,165.87Z" transform="translate(-7.86 -6.95)"></path><path class="cls-4" d="M169.69,167.67h-.84c0-.06-.66-.91-2-2.56a23.91,23.91,0,0,1-2.36-3.28h-.06c.08.86.11,1.59.11,2.21q0,1.8.09,3.63h-1c.07-1.16.1-2.38.1-3.66s0-2.37-.1-3.32h1.16a19.35,19.35,0,0,0,1.82,2.45,17,17,0,0,1,2.17,3.14h.06c-.07-.87-.1-1.61-.1-2.22,0-1.32,0-2.44-.09-3.37h1c-.07.95-.1,2.06-.1,3.32S169.62,166.51,169.69,167.67Z" transform="translate(-7.86 -6.95)"></path><path class="cls-4" d="M184.55,167.67h-1.28a10.5,10.5,0,0,0-.76-2.25H179a10,10,0,0,0-.74,2.25h-1.22a35.87,35.87,0,0,1,1.55-3.42,23.81,23.81,0,0,0,1.56-3.56h1.4a23.08,23.08,0,0,0,1.48,3.5A26.6,26.6,0,0,1,184.55,167.67Zm-2.31-3a32.65,32.65,0,0,1-1.42-3.34h-.07c0,.11-.49,1.22-1.46,3.34Z" transform="translate(-7.86 -6.95)"></path><path class="cls-4" d="M196.65,160.69l0,.76c-.8,0-1.62,0-2.47,0,0,.68,0,1.55,0,2.61s0,2.38.06,3.66h-1.1c0-1.22.07-2.44.07-3.66,0-1,0-1.91,0-2.61-.59,0-1.43,0-2.51.06l0-.77Z" transform="translate(-7.86 -6.95)"></path><path class="cls-4" d="M210.38,160.69c0,.68,0,1.31,0,1.9s0,1.13,0,1.64c0,2.39-1.07,3.59-3.19,3.59a4.31,4.31,0,0,1-1.43-.21,2.41,2.41,0,0,1-1-.65,2.79,2.79,0,0,1-.56-1.1,6.11,6.11,0,0,1-.18-1.57c0-.53,0-1.1,0-1.69s0-1.23,0-1.91h1.14c0,1.37-.07,2.43-.07,3.2a8.93,8.93,0,0,0,.1,1.52,2.48,2.48,0,0,0,.37,1,1.43,1.43,0,0,0,.66.56,2.64,2.64,0,0,0,1,.16,2.83,2.83,0,0,0,1.05-.16,1.44,1.44,0,0,0,.66-.54,2.57,2.57,0,0,0,.36-1,9.09,9.09,0,0,0,.11-1.55c0-.38,0-.83,0-1.36s0-1.13-.07-1.83Z" transform="translate(-7.86 -6.95)"></path><path class="cls-4" d="M224.64,167.67h-1.16a20.87,20.87,0,0,0-.85-2,1.65,1.65,0,0,0-.77-.81,3.29,3.29,0,0,0-1.21-.15h-.91c0,1.16,0,2.15.08,3h-1.13c.06-1.1.09-2.33.09-3.66s0-2.37-.09-3.32h1.54l1,0c1.77,0,2.64.54,2.64,1.62a1.93,1.93,0,0,1-1.48,1.89v.06a1.76,1.76,0,0,1,1.07.82A22.15,22.15,0,0,1,224.64,167.67Zm-1.85-5c0-.86-.64-1.28-1.94-1.28a7.58,7.58,0,0,0-1.16.07c0,.62,0,1.47,0,2.53l.69,0C222,164,222.79,163.54,222.79,162.65Z" transform="translate(-7.86 -6.95)"></path><path class="cls-4" d="M238.76,167.67h-1.28a10.5,10.5,0,0,0-.76-2.25h-3.48a10.58,10.58,0,0,0-.74,2.25h-1.22a35.87,35.87,0,0,1,1.55-3.42,23.81,23.81,0,0,0,1.56-3.56h1.4a23.08,23.08,0,0,0,1.48,3.5A26.6,26.6,0,0,1,238.76,167.67Zm-2.31-3a32.65,32.65,0,0,1-1.42-3.34H235c0,.11-.49,1.22-1.46,3.34Z" transform="translate(-7.86 -6.95)"></path><path class="cls-4" d="M250.91,166.88l0,.79h-4.75c.05-.88.07-2.1.07-3.66,0-1.35,0-2.45-.07-3.32h1.12c-.05.73-.07,1.83-.07,3.32,0,1.22,0,2.2-.07,2.93C248.32,166.94,249.59,166.92,250.91,166.88Z" transform="translate(-7.86 -6.95)"></path><path class="cls-4" d="M263.25,166.86l0,.81h-4.86c.06-1.1.09-2.33.09-3.66s0-2.37-.09-3.32h4.56l-.05.8q-1.65-.06-3.51-.06c0,.55,0,1.3,0,2.24,1.07,0,2,0,2.86-.06v.8c-.89,0-1.84,0-2.86,0q0,1.38.06,2.58C260.77,166.94,262,166.92,263.25,166.86Z" transform="translate(-7.86 -6.95)"></path><path class="cls-4" d="M275.54,165.87c0,1.32-1,2-3.11,2a8.17,8.17,0,0,1-2-.23l.21-.84a6.5,6.5,0,0,0,1.92.31c1.37,0,2.05-.34,2.05-1a1.06,1.06,0,0,0-.53-.89,7.52,7.52,0,0,0-1.4-.66,5.75,5.75,0,0,1-1.53-.8,1.63,1.63,0,0,1,0-2.55,3,3,0,0,1,2-.56,7.7,7.7,0,0,1,2,.16l-.14.86a6.86,6.86,0,0,0-1.95-.26c-1,0-1.55.31-1.55.92a.88.88,0,0,0,.45.75,8.78,8.78,0,0,0,1.28.56,6.56,6.56,0,0,1,1.62.83A1.75,1.75,0,0,1,275.54,165.87Z" transform="translate(-7.86 -6.95)"></path></svg> 